<svg xmlns="http://www.w3.org/2000/svg"  viewBox="0 0 32 32" width="32px" height="32px"><path d="M 16 4 C 9.3844239 4 4 9.3844287 4 16 C 4 22.615571 9.3844239 28 16 28 C 22.615576 28 28 22.615571 28 16 C 28 9.3844287 22.615576 4 16 4 z M 16 6 C 21.534697 6 26 10.465307 26 16 C 26 21.027387 22.311685 25.161278 17.488281 25.878906 L 17.488281 18.916016 L 20.335938 18.916016 L 20.783203 16.023438 L 17.488281 16.023438 L 17.488281 14.443359 C 17.488281 13.242359 17.882859 12.175781 19.005859 12.175781 L 20.810547 12.175781 L 20.810547 9.6523438 C 20.493547 9.6093438 19.822688 9.515625 18.554688 9.515625 C 15.906688 9.515625 14.355469 10.913609 14.355469 14.099609 L 14.355469 16.023438 L 11.632812 16.023438 L 11.632812 18.916016 L 14.355469 18.916016 L 14.355469 25.853516 C 9.6088528 25.070647 6 20.973047 6 16 C 6 10.465307 10.465303 6 16 6 z"/></svg>